<svg width="498" height="182" viewBox="0 0 498 182" fill="none" xmlns="http://www.w3.org/2000/svg">
<path d="M36.425 88.5594C32.1552 88.5594 28.3075 87.6906 24.8817 85.9529C21.5056 84.1655 18.8494 81.7079 16.9131 78.5801C15.0265 75.4522 14.0832 71.9024 14.0832 67.9305C14.0832 63.9586 15.0265 60.4087 16.9131 57.2809C18.8494 54.153 21.5056 51.7202 24.8817 49.9825C28.3075 48.1952 32.1552 47.3015 36.425 47.3015C40.6451 47.3015 44.3191 48.1952 47.4469 49.9825C50.6245 51.7202 52.9331 54.2275 54.3729 57.5043L45.3617 62.345C43.2765 58.671 40.2727 56.834 36.3505 56.834C33.322 56.834 30.8147 57.827 28.8288 59.8129C26.8428 61.7989 25.8499 64.5047 25.8499 67.9305C25.8499 71.3562 26.8428 74.0621 28.8288 76.048C30.8147 78.0339 33.322 79.0269 36.3505 79.0269C40.3224 79.0269 43.3261 77.1899 45.3617 73.5159L54.3729 78.4311C52.9331 81.6086 50.6245 84.0911 47.4469 85.8784C44.3191 87.6657 40.6451 88.5594 36.425 88.5594ZM79.618 88.5594C75.3979 88.5594 71.5998 87.6906 68.2237 85.9529C64.8972 84.1655 62.2907 81.7079 60.404 78.5801C58.5174 75.4522 57.5741 71.9024 57.5741 67.9305C57.5741 63.9586 58.5174 60.4087 60.404 57.2809C62.2907 54.153 64.8972 51.7202 68.2237 49.9825C71.5998 48.1952 75.3979 47.3015 79.618 47.3015C83.8381 47.3015 87.6114 48.1952 90.9379 49.9825C94.2643 51.7202 96.8708 54.153 98.7575 57.2809C100.644 60.4087 101.587 63.9586 101.587 67.9305C101.587 71.9024 100.644 75.4522 98.7575 78.5801C96.8708 81.7079 94.2643 84.1655 90.9379 85.9529C87.6114 87.6906 83.8381 88.5594 79.618 88.5594ZM79.618 79.0269C82.5969 79.0269 85.0297 78.0339 86.9163 76.048C88.8526 74.0124 89.8208 71.3066 89.8208 67.9305C89.8208 64.5544 88.8526 61.8734 86.9163 59.8874C85.0297 57.8518 82.5969 56.834 79.618 56.834C76.6391 56.834 74.1815 57.8518 72.2452 59.8874C70.3089 61.8734 69.3408 64.5544 69.3408 67.9305C69.3408 71.3066 70.3089 74.0124 72.2452 76.048C74.1815 78.0339 76.6391 79.0269 79.618 79.0269ZM133.706 47.3015C138.67 47.3015 142.667 48.791 145.696 51.7699C148.774 54.7488 150.313 59.1675 150.313 65.026V87.9636H138.695V66.8134C138.695 63.6359 138 61.2776 136.61 59.7385C135.22 58.1497 133.209 57.3553 130.578 57.3553C127.648 57.3553 125.315 58.2738 123.577 60.1108C121.84 61.8982 120.971 64.5792 120.971 68.1539V87.9636H109.353V47.8973H120.449V52.5891C121.989 50.901 123.9 49.6102 126.184 48.7165C128.468 47.7732 130.975 47.3015 133.706 47.3015ZM174.323 88.5594C170.997 88.5594 167.745 88.1622 164.568 87.3679C161.39 86.5238 158.858 85.4812 156.971 84.24L160.844 75.8991C162.631 77.041 164.791 77.9843 167.323 78.729C169.855 79.4241 172.338 79.7716 174.77 79.7716C179.685 79.7716 182.143 78.5552 182.143 76.1225C182.143 74.9806 181.473 74.1614 180.132 73.6649C178.792 73.1684 176.731 72.7464 173.951 72.3988C170.674 71.9024 167.968 71.3314 165.834 70.686C163.699 70.0405 161.837 68.8986 160.248 67.2602C158.709 65.6218 157.939 63.2883 157.939 60.2598C157.939 57.7277 158.659 55.4935 160.099 53.5572C161.589 51.5713 163.723 50.0322 166.504 48.9399C169.334 47.8477 172.66 47.3015 176.483 47.3015C179.313 47.3015 182.118 47.6242 184.899 48.2697C187.729 48.8655 190.062 49.7095 191.899 50.8017L188.026 59.0682C184.501 57.0823 180.654 56.0893 176.483 56.0893C174.001 56.0893 172.139 56.4368 170.898 57.1319C169.656 57.827 169.036 58.7207 169.036 59.8129C169.036 61.0542 169.706 61.923 171.047 62.4195C172.387 62.916 174.522 63.3876 177.451 63.8345C180.728 64.3806 183.409 64.9764 185.494 65.6218C187.58 66.2176 189.392 67.3347 190.931 68.9731C192.47 70.6115 193.24 72.8953 193.24 75.8246C193.24 78.307 192.495 80.5164 191.005 82.4527C189.516 84.3889 187.331 85.9032 184.452 86.9955C181.622 88.0381 178.246 88.5594 174.323 88.5594ZM226.25 86.0273C225.108 86.8714 223.693 87.5168 222.005 87.9636C220.366 88.3608 218.629 88.5594 216.792 88.5594C212.025 88.5594 208.326 87.343 205.695 84.9103C203.113 82.4775 201.822 78.9028 201.822 74.1862V57.7277H195.641V48.791H201.822V39.0351H213.44V48.791H223.42V57.7277H213.44V74.0372C213.44 75.7253 213.862 77.041 214.706 77.9843C215.6 78.878 216.841 79.3248 218.43 79.3248C220.267 79.3248 221.831 78.8283 223.122 77.8353L226.25 86.0273ZM243.868 53.1849C245.258 51.2486 247.12 49.784 249.453 48.791C251.836 47.798 254.567 47.3015 257.645 47.3015V58.0256C256.354 57.9263 255.485 57.8767 255.038 57.8767C251.712 57.8767 249.105 58.82 247.219 60.7066C245.332 62.5436 244.389 65.3239 244.389 69.0476V87.9636H232.771V47.8973H243.868V53.1849ZM305.208 47.8973V87.9636H294.186V83.1974C292.647 84.9351 290.81 86.2756 288.675 87.2189C286.54 88.1126 284.232 88.5594 281.749 88.5594C276.486 88.5594 272.316 87.0451 269.238 84.0166C266.16 80.988 264.62 76.4948 264.62 70.537V47.8973H276.238V68.8241C276.238 75.2784 278.944 78.5056 284.356 78.5056C287.136 78.5056 289.37 77.6119 291.058 75.8246C292.746 73.9876 293.59 71.2817 293.59 67.7071V47.8973H305.208ZM315.971 47.8973H327.589V87.9636H315.971V47.8973ZM321.78 42.3119C319.645 42.3119 317.907 41.6913 316.567 40.45C315.226 39.2088 314.556 37.6697 314.556 35.8327C314.556 33.9957 315.226 32.4566 316.567 31.2154C317.907 29.9742 319.645 29.3536 321.78 29.3536C323.915 29.3536 325.653 29.9494 326.993 31.141C328.334 32.3325 329.004 33.822 329.004 35.6093C329.004 37.5456 328.334 39.1592 326.993 40.45C325.653 41.6913 323.915 42.3119 321.78 42.3119ZM362.724 47.3015C367.689 47.3015 371.685 48.791 374.714 51.7699C377.792 54.7488 379.331 59.1675 379.331 65.026V87.9636H367.713V66.8134C367.713 63.6359 367.018 61.2776 365.628 59.7385C364.238 58.1497 362.227 57.3553 359.596 57.3553C356.667 57.3553 354.333 58.2738 352.595 60.1108C350.858 61.8982 349.989 64.5792 349.989 68.1539V87.9636H338.371V47.8973H349.468V52.5891C351.007 50.901 352.918 49.6102 355.202 48.7165C357.486 47.7732 359.993 47.3015 362.724 47.3015ZM431.109 32.7049V87.9636H420.013V83.3463C417.133 86.8217 412.963 88.5594 407.502 88.5594C403.728 88.5594 400.303 87.7154 397.224 86.0273C394.196 84.3393 391.813 81.9313 390.075 78.8035C388.337 75.6756 387.468 72.0513 387.468 67.9305C387.468 63.8096 388.337 60.1853 390.075 57.0575C391.813 53.9296 394.196 51.5217 397.224 49.8336C400.303 48.1456 403.728 47.3015 407.502 47.3015C412.615 47.3015 416.612 48.9151 419.492 52.1423V32.7049H431.109ZM409.512 79.0269C412.442 79.0269 414.874 78.0339 416.811 76.048C418.747 74.0124 419.715 71.3066 419.715 67.9305C419.715 64.5544 418.747 61.8734 416.811 59.8874C414.874 57.8518 412.442 56.834 409.512 56.834C406.533 56.834 404.076 57.8518 402.14 59.8874C400.203 61.8734 399.235 64.5544 399.235 67.9305C399.235 71.3066 400.203 74.0124 402.14 76.048C404.076 78.0339 406.533 79.0269 409.512 79.0269ZM460.927 88.5594C456.707 88.5594 452.909 87.6906 449.533 85.9529C446.206 84.1655 443.6 81.7079 441.713 78.5801C439.826 75.4522 438.883 71.9024 438.883 67.9305C438.883 63.9586 439.826 60.4087 441.713 57.2809C443.6 54.153 446.206 51.7202 449.533 49.9825C452.909 48.1952 456.707 47.3015 460.927 47.3015C465.147 47.3015 468.92 48.1952 472.247 49.9825C475.573 51.7202 478.18 54.153 480.067 57.2809C481.953 60.4087 482.896 63.9586 482.896 67.9305C482.896 71.9024 481.953 75.4522 480.067 78.5801C478.18 81.7079 475.573 84.1655 472.247 85.9529C468.92 87.6906 465.147 88.5594 460.927 88.5594ZM460.927 79.0269C463.906 79.0269 466.339 78.0339 468.225 76.048C470.162 74.0124 471.13 71.3066 471.13 67.9305C471.13 64.5544 470.162 61.8734 468.225 59.8874C466.339 57.8518 463.906 56.834 460.927 56.834C457.948 56.834 455.491 57.8518 453.554 59.8874C451.618 61.8734 450.65 64.5544 450.65 67.9305C450.65 71.3066 451.618 74.0124 453.554 76.048C455.491 78.0339 457.948 79.0269 460.927 79.0269Z" fill="black"/>
<path d="M125.241 145.634C121.865 145.634 118.539 145.262 115.262 144.517C111.985 143.722 109.354 142.705 107.368 141.463L111.613 131.782C113.45 132.924 115.634 133.842 118.166 134.537C120.698 135.183 123.206 135.506 125.688 135.506C127.972 135.506 129.585 135.282 130.529 134.835C131.522 134.339 132.018 133.644 132.018 132.75C132.018 131.856 131.422 131.236 130.231 130.888C129.089 130.491 127.252 130.119 124.72 129.771C121.493 129.374 118.737 128.853 116.453 128.207C114.219 127.562 112.283 126.37 110.645 124.633C109.006 122.895 108.187 120.462 108.187 117.334C108.187 114.753 108.957 112.469 110.496 110.483C112.035 108.447 114.269 106.858 117.198 105.717C120.177 104.525 123.727 103.929 127.848 103.929C130.777 103.929 133.681 104.227 136.561 104.823C139.441 105.419 141.849 106.263 143.785 107.355L139.54 116.962C135.965 114.976 132.093 113.983 127.922 113.983C125.688 113.983 124.05 114.256 123.007 114.802C121.964 115.299 121.443 115.969 121.443 116.813C121.443 117.756 122.014 118.427 123.156 118.824C124.298 119.171 126.185 119.544 128.816 119.941C132.142 120.437 134.898 121.008 137.082 121.654C139.267 122.299 141.154 123.491 142.742 125.228C144.381 126.916 145.2 129.3 145.2 132.378C145.2 134.91 144.43 137.194 142.891 139.229C141.352 141.215 139.068 142.779 136.04 143.921C133.061 145.063 129.461 145.634 125.241 145.634ZM171.554 145.634C167.235 145.634 163.337 144.74 159.862 142.953C156.386 141.166 153.656 138.683 151.67 135.506C149.733 132.328 148.765 128.729 148.765 124.707C148.765 120.735 149.733 117.16 151.67 113.983C153.656 110.805 156.362 108.348 159.787 106.61C163.263 104.823 167.185 103.929 171.554 103.929C175.923 103.929 179.845 104.823 183.321 106.61C186.796 108.348 189.502 110.805 191.438 113.983C193.374 117.111 194.343 120.686 194.343 124.707C194.343 128.729 193.374 132.328 191.438 135.506C189.502 138.683 186.796 141.166 183.321 142.953C179.845 144.74 175.923 145.634 171.554 145.634ZM171.554 134.389C174.036 134.389 176.072 133.544 177.661 131.856C179.249 130.119 180.044 127.736 180.044 124.707C180.044 121.728 179.249 119.395 177.661 117.707C176.072 116.019 174.036 115.175 171.554 115.175C169.072 115.175 167.036 116.019 165.447 117.707C163.858 119.395 163.064 121.728 163.064 124.707C163.064 127.736 163.858 130.119 165.447 131.856C167.036 133.544 169.072 134.389 171.554 134.389ZM227.186 103.929C232.201 103.929 236.222 105.419 239.251 108.398C242.329 111.376 243.868 115.87 243.868 121.877V144.964H229.718V124.186C229.718 118.675 227.509 115.919 223.09 115.919C220.657 115.919 218.696 116.714 217.207 118.302C215.767 119.891 215.047 122.274 215.047 125.452V144.964H200.897V104.599H214.377V108.993C215.966 107.355 217.852 106.114 220.037 105.27C222.221 104.376 224.605 103.929 227.186 103.929ZM279.041 103.929C284.055 103.929 288.077 105.419 291.105 108.398C294.184 111.376 295.723 115.87 295.723 121.877V144.964H281.573V124.186C281.573 118.675 279.363 115.919 274.945 115.919C272.512 115.919 270.551 116.714 269.061 118.302C267.622 119.891 266.902 122.274 266.902 125.452V144.964H252.752V89.7049H266.902V108.323C268.441 106.883 270.253 105.791 272.338 105.046C274.423 104.302 276.658 103.929 279.041 103.929ZM325.445 145.634C321.125 145.634 317.228 144.74 313.753 142.953C310.277 141.166 307.547 138.683 305.561 135.506C303.624 132.328 302.656 128.729 302.656 124.707C302.656 120.735 303.624 117.16 305.561 113.983C307.547 110.805 310.252 108.348 313.678 106.61C317.154 104.823 321.076 103.929 325.445 103.929C329.814 103.929 333.736 104.823 337.212 106.61C340.687 108.348 343.393 110.805 345.329 113.983C347.265 117.111 348.234 120.686 348.234 124.707C348.234 128.729 347.265 132.328 345.329 135.506C343.393 138.683 340.687 141.166 337.212 142.953C333.736 144.74 329.814 145.634 325.445 145.634ZM325.445 134.389C327.927 134.389 329.963 133.544 331.552 131.856C333.14 130.119 333.935 127.736 333.935 124.707C333.935 121.728 333.14 119.395 331.552 117.707C329.963 116.019 327.927 115.175 325.445 115.175C322.962 115.175 320.927 116.019 319.338 117.707C317.749 119.395 316.955 121.728 316.955 124.707C316.955 127.736 317.749 130.119 319.338 131.856C320.927 133.544 322.962 134.389 325.445 134.389ZM369.459 145.634C366.083 145.634 362.757 145.262 359.48 144.517C356.203 143.722 353.572 142.705 351.586 141.463L355.831 131.782C357.668 132.924 359.852 133.842 362.384 134.537C364.917 135.183 367.424 135.506 369.906 135.506C372.19 135.506 373.804 135.282 374.747 134.835C375.74 134.339 376.236 133.644 376.236 132.75C376.236 131.856 375.641 131.236 374.449 130.888C373.307 130.491 371.47 130.119 368.938 129.771C365.711 129.374 362.955 128.853 360.672 128.207C358.437 127.562 356.501 126.37 354.863 124.633C353.224 122.895 352.405 120.462 352.405 117.334C352.405 114.753 353.175 112.469 354.714 110.483C356.253 108.447 358.487 106.858 361.416 105.717C364.395 104.525 367.945 103.929 372.066 103.929C374.995 103.929 377.9 104.227 380.779 104.823C383.659 105.419 386.067 106.263 388.003 107.355L383.758 116.962C380.183 114.976 376.311 113.983 372.14 113.983C369.906 113.983 368.268 114.256 367.225 114.802C366.183 115.299 365.661 115.969 365.661 116.813C365.661 117.756 366.232 118.427 367.374 118.824C368.516 119.171 370.403 119.544 373.034 119.941C376.361 120.437 379.116 121.008 381.301 121.654C383.485 122.299 385.372 123.491 386.96 125.228C388.599 126.916 389.418 129.3 389.418 132.378C389.418 134.91 388.649 137.194 387.109 139.229C385.57 141.215 383.286 142.779 380.258 143.921C377.279 145.063 373.68 145.634 369.459 145.634Z" fill="#ffff"/>
<g clip-path="url(#clip0_1_2)">
<path d="M53.1977 142.478C53.1977 142.478 53.1458 143.753 54.3925 143.753C55.9438 143.753 68.7648 143.735 68.7648 143.735L68.7864 131.958C68.7864 131.958 68.5833 130.018 70.4652 130.018H76.4306C78.6582 130.018 78.5221 131.958 78.5221 131.958L78.4961 143.699C78.4961 143.699 90.656 143.699 92.5659 143.699C94.1475 143.699 94.0762 142.113 94.0762 142.113V120.394L74.2462 102.757L53.1977 120.397V142.478Z" fill="black"/>
<path d="M45.4455 118.755C45.4455 118.755 47.2301 122.047 51.13 118.755L74.4234 99.0477L96.2606 118.631C100.772 121.885 102.464 118.631 102.464 118.631L74.4234 93.2314L45.4455 118.755Z" fill="black"/>
<path d="M95.7291 99.0023H90.1137L90.1374 105.815L95.7291 110.562V99.0023Z" fill="black"/>
</g>
<path d="M423.92 130.051C427.023 130.051 429.539 127.535 429.539 124.432C429.539 121.328 427.023 118.813 423.92 118.813C420.816 118.813 418.301 121.328 418.301 124.432C418.301 127.535 420.816 130.051 423.92 130.051Z" fill="black"/>
<path d="M426.303 130.434H421.536C417.569 130.434 414.342 133.662 414.342 137.628V143.46L414.357 143.551L414.758 143.676C418.543 144.859 421.832 145.254 424.54 145.254C429.827 145.254 432.891 143.746 433.08 143.651L433.456 143.459L433.494 143.46V137.627C433.497 133.662 430.271 130.434 426.303 130.434Z" fill="black"/>
<path d="M412.449 117.129C417.456 117.129 421.514 113.071 421.514 108.064C421.514 103.058 417.456 99 412.449 99C407.443 99 403.385 103.058 403.385 108.064C403.385 113.071 407.443 117.129 412.449 117.129Z" fill="black"/>
<path d="M435.389 117.129C440.395 117.129 444.452 113.069 444.452 108.063C444.452 103.059 440.393 99 435.389 99C430.382 99 426.325 103.058 426.325 108.063C426.325 113.068 430.382 117.129 435.389 117.129Z" fill="black"/>
<path d="M419.514 129.55C418.075 128.309 417.16 126.476 417.16 124.432C417.16 121.925 418.534 119.737 420.567 118.57C419.243 118.043 417.805 117.745 416.296 117.745H408.605C402.206 117.745 397 122.953 397 129.35V138.759L397.023 138.905L397.671 139.107C403.664 140.98 408.881 141.624 413.2 141.648V137.627C413.2 133.729 415.893 130.457 419.514 129.55Z" fill="black"/>
<path d="M439.235 117.745H431.545C430.036 117.745 428.599 118.043 427.275 118.569C429.309 119.737 430.683 121.924 430.683 124.432C430.683 126.475 429.768 128.307 428.33 129.548C429.779 129.909 431.113 130.65 432.198 131.735C433.774 133.312 434.642 135.405 434.641 137.629V141.648C438.961 141.624 444.178 140.979 450.17 139.107L450.818 138.905L450.842 138.759V129.35C450.839 122.953 445.634 117.745 439.235 117.745Z" fill="black"/>
<defs>
<clipPath id="clip0_1_2">
<rect width="57.0182" height="57.0182" fill="white" transform="translate(45.4455 89.9818)"/>
</clipPath>
</defs>
</svg>
