<?xml version="1.0" encoding="iso-8859-1"?>
<!-- Generator: Adobe Illustrator 18.0.0, SVG Export Plug-In . SVG Version: 6.00 Build 0)  -->
<!DOCTYPE svg PUBLIC "-//W3C//DTD SVG 1.1//EN" "http://www.w3.org/Graphics/SVG/1.1/DTD/svg11.dtd">
<svg version="1.1" id="Capa_1" xmlns="http://www.w3.org/2000/svg" xmlns:xlink="http://www.w3.org/1999/xlink" x="0px" y="0px"
	 viewBox="0 0 298.309 298.309" style="enable-background:new 0 0 298.309 298.309;" xml:space="preserve">
<path d="M233.154,0h-38.77c-5.522,0-10,4.478-10,10v13.192h-70.461V10c0-5.522-4.478-10-10-10h-38.77c-5.522,0-10,4.478-10,10
	v278.309c0,5.522,4.478,10,10,10h38.77c5.522,0,10-4.478,10-10v-13.192h70.461v13.192c0,5.522,4.478,10,10,10h38.77
	c5.522,0,10-4.478,10-10V10C243.154,4.478,238.677,0,233.154,0z M184.385,139.154h-70.461v-37.98h70.461V139.154z M113.924,159.154
	h70.461v37.98h-70.461V159.154z M184.385,43.192v37.981h-70.461V43.192H184.385z M93.924,278.309h-18.77V20h18.77V278.309z
	 M113.924,255.116v-37.981h70.461v37.981H113.924z M223.154,278.309h-18.77V20h18.77V278.309z"/>
<g>
</g>
<g>
</g>
<g>
</g>
<g>
</g>
<g>
</g>
<g>
</g>
<g>
</g>
<g>
</g>
<g>
</g>
<g>
</g>
<g>
</g>
<g>
</g>
<g>
</g>
<g>
</g>
<g>
</g>
</svg>
